<?xml version="1.0" standalone="no"?><!-- Generator: Gravit.io --><svg xmlns="http://www.w3.org/2000/svg" xmlns:xlink="http://www.w3.org/1999/xlink" style="isolation:isolate" viewBox="0 0 2351.842 500" width="2351.842" height="500"><defs><clipPath id="_clipPath_JQ1ptRuAMWxoQNf7n3Ln0koCntCidfyx"><rect width="2351.842" height="500"/></clipPath></defs><g clip-path="url(#_clipPath_JQ1ptRuAMWxoQNf7n3Ln0koCntCidfyx)"><path d=" M 1055.74 408.272 C 1130.038 387.3 1250.678 387.3 1324.976 408.272 C 1399.273 429.244 1399.273 463.298 1324.976 484.271 C 1250.678 505.243 1130.038 505.243 1055.74 484.271 C 981.443 463.298 981.443 429.244 1055.74 408.272 Z " fill="rgb(45,137,183)"/><g id="Puddle droplets"><g id="Water droplet"><path d=" M 1151.162 427.998 C 1149.051 425.66 1145.426 425.595 1143.07 427.853 C 1140.715 430.111 1140.516 433.842 1142.626 436.181 C 1144.737 438.519 1148.362 438.584 1150.718 436.326 C 1153.073 434.068 1153.272 430.336 1151.162 427.998 Z " fill="rgb(51,153,204)"/><polygon points="1158.365,444.799,1151.162,427.998,1142.626,436.181" fill="rgb(51,153,204)"/></g><g id="Water droplet"><path d=" M 1158.12 415.014 C 1157.458 413.296 1155.417 412.517 1153.564 413.276 C 1151.712 414.034 1150.746 416.045 1151.409 417.762 C 1152.071 419.48 1154.113 420.259 1155.965 419.5 C 1157.817 418.742 1158.783 416.731 1158.12 415.014 Z " fill="rgb(51,153,204)"/><polygon points="1158.365,425.725,1158.12,415.014,1151.409,417.762" fill="rgb(51,153,204)"/></g><g id="Water droplet"><path d=" M 1211.291 427.998 C 1213.402 425.66 1217.027 425.595 1219.382 427.853 C 1221.738 430.111 1221.937 433.842 1219.826 436.181 C 1217.716 438.519 1214.09 438.584 1211.735 436.326 C 1209.38 434.068 1209.181 430.336 1211.291 427.998 Z " fill="rgb(51,153,204)"/><polygon points="1204.088,444.799,1211.291,427.998,1219.826,436.181" fill="rgb(51,153,204)"/></g><g id="Water droplet"><path d=" M 1205.767 415.014 C 1206.43 413.296 1208.471 412.517 1210.323 413.276 C 1212.175 414.034 1213.141 416.045 1212.479 417.762 C 1211.817 419.48 1209.775 420.259 1207.923 419.5 C 1206.071 418.742 1205.105 416.731 1205.767 415.014 Z " fill="rgb(51,153,204)"/><polygon points="1205.523,425.725,1205.767,415.014,1212.479,417.762" fill="rgb(51,153,204)"/></g></g><path d=" M 1173.568 191.47 L 1173.008 164.369 L 1198.901 170.261 L 1179.459 191.47 L 1195.955 435.372 Q 1188.282 429.084 1179.912 435.372 Q 1171.543 441.661 1164.731 435.372 L 1173.568 191.47 Z " fill="rgb(51,153,204)"/><g id="Pipe bottom right"><path d=" M 1395.263 115.796 L 1395.263 131.439 L 1399.591 131.439 L 1403.92 131.439 L 1403.92 136.653 L 1403.92 141.867 L 1401.283 141.867 L 1398.627 141.867 L 1398.548 154.991 L 1398.489 168.135 L 1397.977 170.201 C 1394.83 182.853 1385.877 191.805 1373.226 194.954 L 1371.159 195.466 L 1358.016 195.525 L 1344.891 195.603 L 1344.891 198.259 L 1344.891 200.896 L 1339.677 200.896 L 1334.463 200.896 L 1334.463 196.567 L 1334.463 192.238 L 1318.821 192.238 L 1179.459 191.765 L 1179.459 188.697 L 1192.42 173.171 L 1175.924 157.411 L 1175.924 153.87 L 1312.224 154.067 L 1318.821 154.067 L 1334.463 154.067 L 1334.463 149.738 L 1334.463 145.409 L 1339.677 145.409 L 1344.891 145.409 L 1344.891 147.967 L 1344.891 150.525 L 1349.162 150.485 L 1353.451 150.427 L 1353.51 146.137 L 1353.549 141.867 L 1350.991 141.867 L 1348.434 141.867 L 1348.434 136.653 L 1348.434 131.439 L 1352.763 131.439 L 1357.091 131.439 L 1357.091 115.796 L 1357.091 100.153 L 1376.177 100.153 L 1395.263 100.153 L 1395.263 115.796 Z " fill="rgb(0,0,0)"/><path d=" M 1360.435 115.795 L 1360.435 131.439 L 1376.078 131.439 L 1391.721 131.439 L 1391.721 115.796 L 1391.721 100.153 L 1376.078 100.153 L 1360.435 100.153 L 1360.435 115.795 Z " fill="rgb(121,121,121)"/><path d=" M 1352.211 134.98 C 1351.797 134.98 1351.778 135.06 1351.778 136.653 L 1351.778 138.325 L 1376.078 138.325 L 1400.379 138.325 L 1400.379 136.594 L 1400.379 134.883 L 1376.532 134.922 C 1363.406 134.941 1352.467 134.98 1352.211 134.98 Z " fill="rgb(121,121,121)"/><path d=" M 1357.051 146.254 L 1356.993 150.662 L 1356.403 151.627 C 1355.714 152.729 1354.534 153.614 1353.432 153.87 C 1353.019 153.968 1350.913 154.066 1348.769 154.066 L 1344.892 154.066 L 1344.892 173.171 L 1344.892 192.257 L 1357.427 192.178 C 1368.405 192.12 1370.196 192.08 1371.751 191.765 C 1382.394 189.68 1390.658 182.42 1393.866 172.306 C 1395.105 168.371 1395.125 168.352 1395.204 154.5 L 1395.283 141.868 L 1376.198 141.868 L 1357.132 141.868 L 1357.051 146.254 Z " fill="rgb(121,121,121)"/><path d=" M 1338.005 173.054 L 1338.005 197.354 L 1339.677 197.354 L 1341.35 197.354 L 1341.35 173.054 L 1341.35 148.753 L 1339.677 148.753 L 1338.005 148.753 L 1338.005 173.054 Z " fill="rgb(121,121,121)"/><path d=" M 1192.42 173.171 L 1179.459 188.697 L 1255.191 188.697 L 1334.463 188.697 L 1334.463 173.054 L 1334.463 157.411 L 1255.197 157.411 L 1190.063 157.411 L 1175.924 165.548 L 1192.42 173.171 Z " fill="rgb(121,121,121)"/></g><g id="Pipe bottom left"><path d=" M 956.586 115.796 L 956.586 131.439 L 952.257 131.439 L 947.928 131.439 L 947.928 136.653 L 947.928 141.867 L 950.565 141.867 L 953.221 141.867 L 953.3 154.991 L 953.359 168.135 L 953.871 170.201 C 957.019 182.853 965.971 191.805 978.623 194.954 L 980.689 195.466 L 993.833 195.525 L 1006.957 195.603 L 1006.957 198.259 L 1006.957 200.896 L 1012.171 200.896 L 1017.385 200.896 L 1017.385 196.567 L 1017.385 192.238 L 1033.028 192.238 L 1173.568 191.765 L 1173.568 188.697 L 1175.924 157.411 L 1175.918 153.87 L 1039.624 154.067 L 1033.028 154.067 L 1017.385 154.067 L 1017.385 149.738 L 1017.385 145.409 L 1012.171 145.409 L 1006.957 145.409 L 1006.957 147.967 L 1006.957 150.525 L 1002.687 150.485 L 998.397 150.427 L 998.338 146.137 L 998.299 141.867 L 1000.857 141.867 L 1003.415 141.867 L 1003.415 136.653 L 1003.415 131.439 L 999.086 131.439 L 994.757 131.439 L 994.757 115.796 L 994.757 100.153 L 975.671 100.153 L 956.565 100.153 L 956.586 115.796 Z " fill="rgb(0,0,0)"/><path d=" M 991.413 117.566 L 991.413 131.439 L 975.77 131.439 L 960.127 131.439 L 960.127 117.567 L 960.127 100.153 L 975.77 100.153 L 991.413 100.153 L 991.413 117.566 Z " fill="rgb(121,121,121)"/><path d=" M 999.638 134.98 C 1000.051 134.98 1000.071 135.06 1000.071 136.653 L 1000.071 138.325 L 975.77 138.325 L 951.47 138.325 L 951.47 136.594 L 951.47 134.883 L 975.317 134.922 C 988.442 134.941 999.382 134.98 999.638 134.98 Z " fill="rgb(121,121,121)"/><path d=" M 994.797 146.254 L 994.856 150.662 L 995.446 151.627 C 996.134 152.729 997.315 153.614 998.417 153.87 C 998.83 153.968 1000.935 154.066 1003.079 154.066 L 1006.956 154.066 L 1006.956 173.171 L 1006.956 192.257 L 994.422 192.178 C 983.443 192.12 981.652 192.08 980.098 191.765 C 969.454 189.68 961.19 182.42 957.983 172.306 C 956.743 168.371 956.724 168.352 956.644 154.5 L 956.565 141.868 L 975.651 141.868 L 994.717 141.868 L 994.797 146.254 Z " fill="rgb(121,121,121)"/><path d=" M 1013.843 173.054 L 1013.843 197.354 L 1012.171 197.354 L 1010.498 197.354 L 1010.498 173.054 L 1010.498 148.753 L 1012.171 148.753 L 1013.843 148.753 L 1013.843 173.054 Z " fill="rgb(121,121,121)"/><path d=" M 1190.653 173.054 L 1173.568 188.697 L 1096.657 188.697 L 1017.385 188.697 L 1017.385 173.054 L 1017.385 157.411 L 1096.652 157.411 L 1190.653 157.411 L 1175.924 165.548 L 1190.653 173.054 Z " fill="rgb(121,121,121)"/></g><g id="Pipe top left"><path d=" M 994.935 85.1 L 994.935 69.457 L 999.264 69.457 L 1003.593 69.457 L 1003.593 64.243 L 1003.593 59.029 L 1000.956 59.029 L 998.299 59.029 L 998.22 45.905 L 998.162 32.761 L 997.65 30.695 C 994.502 18.043 985.549 9.09 972.898 5.942 L 970.832 5.43 L 957.688 5.371 L 944.564 5.293 L 944.564 2.637 L 944.564 0 L 939.35 0 L 934.136 0 L 934.136 4.329 L 934.136 8.658 L 918.493 8.658 L 0.034 9.131 L 0 47.026 L 911.897 46.829 L 918.493 46.829 L 934.136 46.829 L 934.136 51.158 L 934.136 55.486 L 939.35 55.486 L 944.564 55.486 L 944.564 52.929 L 944.564 50.371 L 948.834 50.41 L 953.124 50.469 L 953.182 54.759 L 953.221 59.029 L 950.664 59.029 L 948.106 59.029 L 948.106 64.243 L 948.106 69.457 L 952.435 69.457 L 956.764 69.457 L 956.764 85.1 L 956.764 100.742 L 975.849 100.742 L 994.876 100.742 L 994.935 85.1 Z " fill="rgb(0,0,0)"/><path d=" M 960.108 83.329 L 960.108 69.457 L 975.751 69.457 L 991.393 69.457 L 991.393 83.328 L 991.393 100.742 L 975.751 100.742 L 960.108 100.742 L 960.108 83.329 Z " fill="rgb(121,121,121)"/><path d=" M 951.883 65.915 C 951.47 65.915 951.45 65.836 951.45 64.243 L 951.45 62.57 L 975.751 62.57 L 1000.051 62.57 L 1000.051 64.301 L 1000.051 66.013 L 976.204 65.974 C 963.079 65.954 952.139 65.915 951.883 65.915 Z " fill="rgb(121,121,121)"/><path d=" M 956.724 54.641 L 956.665 50.233 L 956.075 49.269 C 955.386 48.167 954.206 47.282 953.104 47.026 C 952.691 46.927 950.586 46.83 948.441 46.83 L 944.565 46.83 L 944.565 27.725 L 944.565 8.639 L 957.099 8.717 C 968.078 8.776 969.868 8.816 971.423 9.131 C 982.067 11.215 990.33 18.476 993.538 28.589 C 994.778 32.524 994.797 32.544 994.876 46.396 L 994.955 59.028 L 975.87 59.028 L 956.804 59.028 L 956.724 54.641 Z " fill="rgb(121,121,121)"/><path d=" M 937.677 27.842 L 937.677 3.541 L 939.35 3.541 L 941.022 3.541 L 941.022 27.842 L 941.022 52.142 L 939.35 52.142 L 937.677 52.142 L 937.677 27.842 Z " fill="rgb(121,121,121)"/><path d=" M 0 27.842 L 0 12.199 L 467.051 12.199 L 934.136 12.199 L 934.136 27.842 L 934.136 43.485 L 467.085 43.485 L 0.034 43.485 L 0.034 27.842 L 0 27.842 Z " fill="rgb(121,121,121)"/></g><g id="Pipe top right"><path d=" M 1356.904 85.1 L 1356.904 69.457 L 1352.576 69.457 L 1348.247 69.457 L 1348.247 64.243 L 1348.247 59.029 L 1350.884 59.029 L 1353.54 59.029 L 1353.619 45.905 L 1353.678 32.761 L 1354.19 30.695 C 1357.337 18.043 1366.29 9.09 1378.941 5.942 L 1381.008 5.43 L 1394.151 5.371 L 1407.276 5.293 L 1407.276 2.637 L 1407.276 0 L 1412.49 0 L 1417.704 0 L 1417.704 4.329 L 1417.704 8.658 L 1433.346 8.658 L 2351.807 8.639 L 2351.807 47.026 L 1439.943 46.829 L 1433.346 46.829 L 1417.704 46.829 L 1417.704 51.158 L 1417.704 55.486 L 1412.49 55.486 L 1407.276 55.486 L 1407.276 52.929 L 1407.276 50.371 L 1403.005 50.41 L 1398.716 50.469 L 1398.657 54.759 L 1398.618 59.029 L 1401.176 59.029 L 1403.733 59.029 L 1403.733 64.243 L 1403.733 69.457 L 1399.404 69.457 L 1395.076 69.457 L 1395.076 85.1 L 1395.076 100.742 L 1375.99 100.742 L 1356.904 100.742 L 1356.904 85.1 Z " fill="rgb(0,0,0)"/><path d=" M 1391.732 83.329 L 1391.732 69.457 L 1376.089 69.457 L 1360.446 69.457 L 1360.446 83.328 L 1360.446 100.742 L 1375.99 100.742 L 1391.732 100.742 L 1391.732 83.329 Z " fill="rgb(121,121,121)"/><path d=" M 1399.956 65.915 C 1400.37 65.915 1400.389 65.836 1400.389 64.243 L 1400.389 62.57 L 1376.089 62.57 L 1351.788 62.57 L 1351.788 64.301 L 1351.788 66.013 L 1375.635 65.974 C 1388.761 65.954 1399.7 65.915 1399.956 65.915 Z " fill="rgb(121,121,121)"/><path d=" M 1395.116 54.641 L 1395.174 50.233 L 1395.764 49.269 C 1396.453 48.167 1397.633 47.282 1398.735 47.026 C 1399.148 46.927 1401.254 46.83 1403.398 46.83 L 1407.275 46.83 L 1407.275 27.725 L 1407.275 8.639 L 1394.74 8.717 C 1383.762 8.776 1381.971 8.816 1380.417 9.131 C 1369.773 11.215 1361.509 18.476 1358.301 28.589 C 1357.062 32.524 1357.042 32.544 1356.963 46.396 L 1356.884 59.028 L 1375.969 59.028 L 1395.035 59.028 L 1395.116 54.641 Z " fill="rgb(121,121,121)"/><path d=" M 1414.162 27.842 L 1414.162 3.541 L 1412.49 3.541 L 1410.817 3.541 L 1410.817 27.842 L 1410.817 52.142 L 1412.49 52.142 L 1414.162 52.142 L 1414.162 27.842 Z " fill="rgb(121,121,121)"/><path d=" M 2351.842 27.842 L 2351.842 12.199 L 1884.79 12.199 L 1417.704 12.199 L 1417.704 27.842 L 1417.704 43.485 L 1884.755 43.485 L 2351.807 43.485 L 2351.807 27.842 L 2351.842 27.842 Z " fill="rgb(121,121,121)"/></g><g id="Pipe droplets"><g id="Water droplet"><path d=" M 1171.624 195.243 C 1171.288 195.604 1170.711 195.614 1170.336 195.265 C 1169.961 194.916 1169.93 194.34 1170.265 193.979 C 1170.601 193.618 1171.178 193.608 1171.553 193.956 C 1171.928 194.305 1171.96 194.881 1171.624 195.243 Z " fill="rgb(51,153,204)"/><polygon points="1172.771,192.648,1171.624,195.243,1170.265,193.979" fill="rgb(51,153,204)"/></g><g id="Water droplet"><path d=" M 1172.732 197.248 C 1172.626 197.513 1172.301 197.633 1172.006 197.516 C 1171.712 197.399 1171.558 197.089 1171.663 196.823 C 1171.769 196.558 1172.094 196.438 1172.388 196.555 C 1172.683 196.672 1172.837 196.983 1172.732 197.248 Z " fill="rgb(51,153,204)"/><polygon points="1172.771,195.594,1172.732,197.248,1171.663,196.823" fill="rgb(51,153,204)"/></g><g id="Water droplet"><path d=" M 1181.195 195.243 C 1181.531 195.604 1182.108 195.614 1182.483 195.265 C 1182.857 194.916 1182.889 194.34 1182.553 193.979 C 1182.217 193.618 1181.64 193.608 1181.265 193.956 C 1180.89 194.305 1180.859 194.881 1181.195 195.243 Z " fill="rgb(51,153,204)"/><polygon points="1180.048,192.648,1181.195,195.243,1182.553,193.979" fill="rgb(51,153,204)"/></g><g id="Water droplet"><path d=" M 1180.315 197.248 C 1180.421 197.513 1180.746 197.633 1181.041 197.516 C 1181.335 197.399 1181.489 197.089 1181.384 196.823 C 1181.278 196.558 1180.953 196.438 1180.659 196.555 C 1180.364 196.672 1180.21 196.983 1180.315 197.248 Z " fill="rgb(51,153,204)"/><polygon points="1180.277,195.594,1180.315,197.248,1181.384,196.823" fill="rgb(51,153,204)"/></g></g></g></svg>