<?xml version="1.0" standalone="no"?><!-- Generator: Gravit.io --><svg xmlns="http://www.w3.org/2000/svg" xmlns:xlink="http://www.w3.org/1999/xlink" style="isolation:isolate" viewBox="0 0 641.118 110" width="641.118" height="110"><defs><clipPath id="_clipPath_KnpZ8R43yIXROoBJnJ7O0Z8WLNPW06xF"><rect width="641.118" height="110"/></clipPath></defs><g clip-path="url(#_clipPath_KnpZ8R43yIXROoBJnJ7O0Z8WLNPW06xF)"><g id="Right pipe"><path d=" M 369.118 55.763 L 369.118 12.68 L 641.118 12.68 L 641.118 97.838 L 369.118 97.838 L 369.118 55.763 Z " fill="rgb(121,121,121)"/><path d=" M 369.118 21.318 L 641.118 21.318 L 641.118 32.447 L 369.118 32.447 L 369.118 21.318 Z " fill="rgb(155,155,155)"/></g><g id="Left pipe"><path d=" M 319.991 107.166 L 319.991 2.834 L 229.993 55.127 L 319.991 107.166 Z " fill="rgb(136,136,136)"/><defs><filter id="xghMk0GbSjc4NbO2BGOo7yfOxWfomC6c" x="-200%" y="-200%" width="400%" height="400%"><feOffset xmlns="http://www.w3.org/2000/svg" in="SourceAlpha" result="offOut" dx="1" dy="0"/><feGaussianBlur xmlns="http://www.w3.org/2000/svg" in="offOut" result="blurOut" stdDeviation="0"/><feComponentTransfer xmlns="http://www.w3.org/2000/svg" in="blurOut" result="opacOut"><feFuncA xmlns="http://www.w3.org/2000/svg" type="table" tableValues="0 0.5"/></feComponentTransfer><feBlend xmlns="http://www.w3.org/2000/svg" in="SourceGraphic" in2="opacOut" mode="normal"/></filter></defs><g filter="url(#xghMk0GbSjc4NbO2BGOo7yfOxWfomC6c)"><path d=" M 359.026 0 C 364.532 0 369 2.105 369 4.7 C 369 12.297 369 24.763 369 38.584 C 369 44.519 369 50.704 369 56.861 C 369 76.117 369 95.099 369 105.3 C 369 107.899 364.532 110 359.026 110 C 350.817 110 336.185 110 327.976 110 C 322.47 110 318.002 107.899 318.002 105.3 C 318.002 84.241 318.002 25.763 318.002 4.7 C 318.002 2.105 322.47 0 327.976 0 C 336.185 0 350.817 0 359.026 0 Z " fill="rgb(121,121,121)"/><clipPath id="_clipPath_uighpdKbTE8LtrqtMnjeAuaI3cqVqwuw"><g filter="url(#xghMk0GbSjc4NbO2BGOo7yfOxWfomC6c)"><path d=" M 359.026 0 C 364.532 0 369 2.105 369 4.7 C 369 12.297 369 24.763 369 38.584 C 369 44.519 369 50.704 369 56.861 C 369 76.117 369 95.099 369 105.3 C 369 107.899 364.532 110 359.026 110 C 350.817 110 336.185 110 327.976 110 C 322.47 110 318.002 107.899 318.002 105.3 C 318.002 84.241 318.002 25.763 318.002 4.7 C 318.002 2.105 322.47 0 327.976 0 C 336.185 0 350.817 0 359.026 0 Z " fill="rgb(121,121,121)"/></g></clipPath><g clip-path="url(#_clipPath_uighpdKbTE8LtrqtMnjeAuaI3cqVqwuw)"><path d=" M 318.15 15.53 L 369.172 15.53 L 369.172 33.21 L 318.15 33.21 L 318.15 15.53 Z " fill="rgb(155,155,155)"/></g></g><path d=" M 0 12.684 L 302.991 12.684 L 302.991 97.278 L 0 97.842 L 0 12.684 Z " fill="rgb(121,121,121)"/><path d=" M 0 21.322 L 302.991 21.322 L 302.991 32.451 L 0 32.451 L 0 21.322 Z " fill="rgb(155,155,155)"/></g></g></svg>